<svg width="16" height="16" viewBox="0 0 16 16" fill="none" xmlns="http://www.w3.org/2000/svg">
<path d="M10.6668 2.50001L11.1671 2.5C11.5207 2.5 11.8598 2.64048 12.1099 2.89052C12.3599 3.14057 12.5004 3.47971 12.5004 3.83333V13.1667C12.5004 13.5203 12.3599 13.8594 12.1099 14.1095C11.8598 14.3595 11.3539 14.5 11.0002 14.5H4.83358C4.47996 14.5 4.14082 14.3595 3.89077 14.1095C3.64072 13.8594 3.50024 13.5203 3.50024 13.1667V3.83333C3.50024 3.47971 3.64072 3.14057 3.89077 2.89052C4.14082 2.64048 4.47996 2.5 4.83358 2.5L5.33345 2.50001" stroke="#080433" stroke-linecap="round" stroke-linejoin="round"/>
<path d="M9.8335 1.5H6.16683C5.79864 1.5 5.50016 1.79848 5.50016 2.16667L5.5 2.83333C5.5 3.20152 5.79848 3.5 6.16667 3.5H9.83333C10.2015 3.5 10.5 3.20152 10.5 2.83333L10.5002 2.16667C10.5002 1.79848 10.2017 1.5 9.8335 1.5Z" stroke="#080433" stroke-linecap="round" stroke-linejoin="round"/>
</svg>
