<svg width="12" height="10" viewBox="0 0 12 10" fill="none" xmlns="http://www.w3.org/2000/svg">
<path fill-rule="evenodd" clip-rule="evenodd" d="M0.25 0.5C0.25 0.223858 0.473858 0 0.75 0H1.625C1.85443 0 2.05443 0.156149 2.11007 0.378732L2.39039 1.5H11C11.154 1.5 11.2993 1.57094 11.3941 1.69229C11.4889 1.81365 11.5224 1.9719 11.4851 2.12127L10.2351 7.12127C10.1794 7.34385 9.97943 7.5 9.75 7.5H3.25C3.02057 7.5 2.82057 7.34385 2.76493 7.12127L1.23461 1H0.75C0.473858 1 0.25 0.776142 0.25 0.5ZM3.25 7.5C2.55964 7.5 2 8.05964 2 8.75C2 9.44036 2.55964 10 3.25 10C3.94036 10 4.5 9.44036 4.5 8.75C4.5 8.05964 3.94036 7.5 3.25 7.5ZM9.75 7.5C9.05964 7.5 8.5 8.05964 8.5 8.75C8.5 9.44036 9.05964 10 9.75 10C10.4404 10 11 9.44036 11 8.75C11 8.05964 10.4404 7.5 9.75 7.5ZM2.64039 2.5L3.64039 6.5H9.35961L10.3596 2.5H2.64039ZM6.5 3C6.77614 3 7 3.22386 7 3.5V4H7.5C7.77614 4 8 4.22386 8 4.5C8 4.77614 7.77614 5 7.5 5H7V5.5C7 5.77614 6.77614 6 6.5 6C6.22386 6 6 5.77614 6 5.5V5H5.5C5.22386 5 5 4.77614 5 4.5C5 4.22386 5.22386 4 5.5 4H6V3.5C6 3.22386 6.22386 3 6.5 3ZM3.25 8.5C3.11193 8.5 3 8.61193 3 8.75C3 8.88807 3.11193 9 3.25 9C3.38807 9 3.5 8.88807 3.5 8.75C3.5 8.61193 3.38807 8.5 3.25 8.5ZM9.75 8.5C9.61193 8.5 9.5 8.61193 9.5 8.75C9.5 8.88807 9.61193 9 9.75 9C9.88807 9 10 8.88807 10 8.75C10 8.61193 9.88807 8.5 9.75 8.5Z" fill="#C93E33"/>
</svg>
