<svg width="12" height="11" viewBox="0 0 12 11" fill="none" xmlns="http://www.w3.org/2000/svg">
<path d="M9.67969 1.77344C10.1719 2.28906 10.5469 2.85156 10.8281 3.48438C11.1094 4.11719 11.25 4.77344 11.25 5.45312C11.25 6.39062 10.9922 7.25781 10.5234 8.05469C10.0547 8.85156 9.39844 9.48438 8.60156 9.95312C7.80469 10.4219 6.9375 10.6562 6 10.6562C5.10938 10.6562 4.26562 10.4453 3.51562 10.0234L0.75 10.75L1.5 8.05469C1.03125 7.25781 0.796875 6.39062 0.796875 5.45312C0.796875 4.51562 1.03125 3.64844 1.5 2.85156C1.96875 2.05469 2.60156 1.42188 3.39844 0.953125C4.19531 0.484375 5.0625 0.25 6 0.25C6.67969 0.25 7.33594 0.390625 7.96875 0.648438C8.60156 0.929688 9.16406 1.30469 9.67969 1.77344ZM6 9.78906C6.77344 9.78906 7.5 9.60156 8.17969 9.20312C8.83594 8.82812 9.375 8.28906 9.77344 7.63281C10.1719 6.97656 10.3828 6.25 10.3828 5.45312C10.3828 4.89062 10.2656 4.35156 10.0312 3.8125C9.79688 3.29688 9.46875 2.82812 9.04688 2.40625C8.625 1.98438 8.15625 1.67969 7.64062 1.44531C7.125 1.23438 6.5625 1.11719 6 1.11719C5.20312 1.11719 4.47656 1.32812 3.82031 1.70312C3.16406 2.10156 2.625 2.64062 2.25 3.29688C1.85156 3.95312 1.66406 4.67969 1.66406 5.45312C1.66406 6.29688 1.875 7.04688 2.34375 7.75L2.4375 7.91406L1.99219 9.50781L3.63281 9.08594L3.79688 9.17969C4.45312 9.60156 5.20312 9.78906 6 9.78906ZM8.36719 6.53125L8.4375 6.57812C8.53125 6.625 8.60156 6.67188 8.625 6.69531C8.625 6.74219 8.625 6.8125 8.625 6.92969C8.625 7.07031 8.57812 7.1875 8.53125 7.32812C8.48438 7.46875 8.34375 7.58594 8.15625 7.72656C7.96875 7.86719 7.80469 7.9375 7.66406 7.9375C7.42969 7.98438 7.21875 7.98438 7.03125 7.9375C6.79688 7.89062 6.46875 7.79688 6.09375 7.60938C5.29688 7.28125 4.57031 6.625 3.91406 5.6875L3.86719 5.64062C3.51562 5.17188 3.35156 4.72656 3.35156 4.30469C3.35156 3.90625 3.49219 3.55469 3.77344 3.25L3.79688 3.22656C3.89062 3.13281 4.00781 3.0625 4.14844 3.0625H4.42969C4.47656 3.0625 4.52344 3.08594 4.57031 3.10938C4.61719 3.13281 4.64062 3.17969 4.6875 3.27344L5.08594 4.23438C5.13281 4.32812 5.13281 4.42188 5.10938 4.46875C5.01562 4.63281 4.92188 4.77344 4.80469 4.89062C4.73438 4.96094 4.6875 5.00781 4.6875 5.05469C4.66406 5.10156 4.6875 5.125 4.73438 5.17188C4.94531 5.59375 5.20312 5.89844 5.50781 6.13281C5.71875 6.32031 6.04688 6.50781 6.49219 6.71875C6.60938 6.78906 6.70312 6.78906 6.77344 6.69531C6.96094 6.46094 7.10156 6.29688 7.19531 6.17969C7.21875 6.13281 7.26562 6.08594 7.3125 6.08594C7.35938 6.08594 7.40625 6.10938 7.47656 6.10938C7.59375 6.15625 7.89844 6.29688 8.36719 6.53125Z" fill="white"/>
</svg>
