<svg width="12" height="9" viewBox="0 0 12 9" fill="none" xmlns="http://www.w3.org/2000/svg">
<path d="M11.2266 0.820312C11.2734 0.492188 11.25 0.28125 11.1094 0.140625C10.9688 0 10.7812 -0.0234375 10.5469 0.046875L1.24219 3.63281C0.914062 3.77344 0.75 3.91406 0.75 4.05469C0.726562 4.21875 0.84375 4.33594 1.125 4.40625L3.51562 5.15625L9.04688 1.66406C9.11719 1.61719 9.1875 1.59375 9.25781 1.59375C9.32812 1.59375 9.375 1.59375 9.39844 1.64062C9.42188 1.6875 9.39844 1.71094 9.35156 1.75781L4.875 5.8125L4.6875 8.27344C4.80469 8.27344 4.89844 8.25 4.99219 8.20312C5.03906 8.17969 5.08594 8.13281 5.17969 8.03906L6.35156 6.91406L8.76562 8.69531C8.97656 8.83594 9.16406 8.85938 9.30469 8.78906C9.44531 8.71875 9.5625 8.55469 9.63281 8.27344L11.2266 0.820312Z" fill="white"/>
</svg>
