<svg width="14" height="9" viewBox="0 0 14 9" fill="none" xmlns="http://www.w3.org/2000/svg">
<path d="M13.0234 1.26562C12.9766 1.5 12.7891 1.89844 12.4609 2.4375C12.2266 2.83594 11.9453 3.28125 11.6172 3.79688C11.3359 4.21875 11.1719 4.42969 11.1719 4.42969C11.0781 4.57031 11.0312 4.6875 11.0312 4.75781C11.0312 4.85156 11.0781 4.94531 11.1719 5.03906L11.3828 5.27344C12.5078 6.44531 13.1406 7.24219 13.2812 7.66406C13.3281 7.85156 13.3047 8.01562 13.2109 8.10938C13.1172 8.20312 13 8.25 12.8125 8.25H11.4297C11.2422 8.25 11.1016 8.20312 10.9609 8.08594C10.8672 8.03906 10.6797 7.875 10.4453 7.59375C10.2109 7.3125 10 7.07812 9.8125 6.89062C9.17969 6.30469 8.71094 6 8.42969 6C8.28906 6 8.19531 6.02344 8.14844 6.07031C8.10156 6.11719 8.07812 6.23438 8.07812 6.375C8.05469 6.49219 8.05469 6.72656 8.05469 7.10156V7.71094C8.05469 7.89844 8.00781 8.03906 7.91406 8.10938C7.77344 8.20312 7.49219 8.25 7.07031 8.25C6.32031 8.25 5.59375 8.03906 4.84375 7.59375C4.09375 7.17188 3.4375 6.53906 2.875 5.71875C2.33594 5.01562 1.89062 4.28906 1.53906 3.53906C1.25781 2.97656 1.02344 2.46094 0.859375 1.96875C0.742188 1.59375 0.695312 1.3125 0.695312 1.14844C0.695312 0.890625 0.835938 0.75 1.16406 0.75H2.54688C2.71094 0.75 2.82812 0.796875 2.92188 0.867188C3.01562 0.960938 3.08594 1.10156 3.15625 1.28906C3.36719 1.92188 3.625 2.53125 3.95312 3.11719C4.23438 3.67969 4.51562 4.125 4.79688 4.45312C5.07812 4.80469 5.28906 4.96875 5.45312 4.96875C5.54688 4.96875 5.59375 4.94531 5.64062 4.875C5.6875 4.80469 5.71094 4.66406 5.71094 4.45312V2.41406C5.6875 2.17969 5.64062 1.94531 5.54688 1.75781C5.5 1.66406 5.40625 1.54688 5.3125 1.40625C5.19531 1.26562 5.14844 1.17188 5.14844 1.07812C5.14844 0.984375 5.17188 0.914062 5.24219 0.84375C5.3125 0.796875 5.40625 0.75 5.5 0.75H7.67969C7.82031 0.75 7.91406 0.796875 7.96094 0.867188C8.00781 0.960938 8.05469 1.07812 8.05469 1.26562V3.98438C8.05469 4.125 8.07812 4.24219 8.125 4.28906C8.17188 4.35938 8.21875 4.38281 8.28906 4.38281C8.35938 4.38281 8.45312 4.35938 8.54688 4.3125C8.64062 4.26562 8.75781 4.14844 8.92188 3.96094C9.20312 3.63281 9.50781 3.23438 9.8125 2.74219C10 2.41406 10.2109 2.03906 10.3984 1.61719L10.6328 1.14844C10.7266 0.890625 10.9375 0.75 11.2188 0.75H12.6016C12.9766 0.75 13.1172 0.9375 13.0234 1.26562Z" fill="white"/>
</svg>
